<svg width="178" height="40" viewBox="0 0 178 40" fill="none" xmlns="http://www.w3.org/2000/svg">
<path d="M91.0307 11.2875V7.05884H76.5604V32.9412H91.0307V28.7125H81.0324V21.8592H88.8856V17.6305H81.0324V11.2875H91.0307Z" fill="white"/>
<path d="M108.345 32.9412H113.399L107.945 24.01C110.927 22.7341 113.145 19.8907 113.145 15.9536C113.145 10.4126 108.782 7.05884 104.092 7.05884H94.3841V32.9412H98.8561V24.812H103.401L108.345 32.9412ZM98.8561 11.2875H104.092C106.6 11.2875 108.673 13.0373 108.673 15.9536C108.673 18.8335 106.6 20.5833 104.092 20.5833H98.8561V11.2875Z" fill="white"/>
<path d="M130.063 19.1251C131.626 17.9221 132.644 16.1359 132.644 14.0216C132.644 9.93871 129.699 7.05884 124.318 7.05884H116.356V32.9412H124.936C130.426 32.9412 134.098 30.2801 134.098 25.4681C134.098 22.6247 132.353 20.4375 130.063 19.1251ZM120.828 11.2875H124.318C126.718 11.2875 128.172 12.3082 128.172 14.2767C128.172 16.3546 126.718 17.266 124.318 17.266H120.828V11.2875ZM124.936 28.7125H120.828V21.4946H125.045C127.99 21.4946 129.626 23.0257 129.626 25.2129C129.626 27.4002 127.99 28.7125 124.936 28.7125Z" fill="white"/>
<path d="M144.211 32.9411C148.858 32.9411 152.152 29.4184 152.152 25.0895C152.152 20.7607 148.858 17.2379 144.211 17.2379C139.534 17.2379 136.211 20.7607 136.211 25.0895C136.211 29.4184 139.534 32.9411 144.211 32.9411ZM144.211 29.4781C141.652 29.4781 139.828 27.4778 139.828 25.0895C139.828 22.7012 141.652 20.7009 144.211 20.7009C146.74 20.7009 148.534 22.7012 148.534 25.0895C148.534 27.4778 146.74 29.4781 144.211 29.4781Z" fill="white"/>
<path d="M162.919 32.9411C167.566 32.9411 170.861 29.4184 170.861 25.0895C170.861 20.7607 167.566 17.2379 162.919 17.2379C158.243 17.2379 154.919 20.7607 154.919 25.0895C154.919 29.4184 158.243 32.9411 162.919 32.9411ZM162.919 29.4781C160.36 29.4781 158.537 27.4778 158.537 25.0895C158.537 22.7012 160.36 20.7009 162.919 20.7009C165.449 20.7009 167.243 22.7012 167.243 25.0895C167.243 27.4778 165.449 29.4781 162.919 29.4781Z" fill="white"/>
<path d="M154.919 25.0895C154.919 21.9579 156.659 19.2482 159.391 17.9888V7.05897H154.919V25.0895Z" fill="white"/>
<path fill-rule="evenodd" clip-rule="evenodd" d="M64.8409 7.05884H55.497V17.9586V22.1873V32.9412H59.969V22.1873H64.8409C69.8582 22.1873 74.2629 20.3646 74.2629 14.7142C74.2629 9.06383 69.8582 7.05884 64.8409 7.05884ZM59.969 17.9586H64.8409C67.6767 17.9586 69.5905 16.9826 69.6483 14.7142C69.7072 12.4054 67.6767 11.2875 64.8409 11.2875H59.969V17.9586Z" fill="white"/>
<path d="M23.7177 7.05884V17.9586H11.6106V7.05884H7.13867V32.9412H11.6106V22.1873H23.7177V32.9412H28.226V22.1873H39.5619V32.9412H44.0339V22.1873H55.497V17.9586H46.6863L53.5232 7.05884H48.4695L41.7797 17.9221L35.1263 7.05884H30.0726L36.9095 17.9586H28.226V7.05884H23.7177Z" fill="white"/>
</svg>
